<?xml version="1.0" encoding="iso-8859-1"?>
<!-- Generator: Adobe Illustrator 19.0.0, SVG Export Plug-In . SVG Version: 6.00 Build 0)  -->
<svg version="1.1" id="Layer_1" xmlns="http://www.w3.org/2000/svg" xmlns:xlink="http://www.w3.org/1999/xlink" x="0px" y="0px"
	 viewBox="0 0 512 512" style="enable-background:new 0 0 512 512;" xml:space="preserve">
<path style="fill:#ff8f00;" d="M386.745,512h-261.49c-8.023,0-14.732-6.099-15.493-14.087L78.634,171.104
	c-0.416-4.364,1.029-8.701,3.979-11.946c2.949-3.243,7.129-5.092,11.513-5.092h323.747c8.594,0,15.563,6.967,15.563,15.563
	s-6.969,15.563-15.563,15.563H111.242l28.164,295.683h233.188l19.944-209.388c0.814-8.556,8.408-14.837,16.968-14.017
	c8.556,0.815,14.831,8.412,14.017,16.968l-21.285,223.476C401.477,505.901,394.768,512,386.745,512z"/>
<rect x="65.488" y="107.378" style="fill:#ffffff;" width="381.021" height="84.63"/>
<g>
	<path style="fill:#ff8f00;" d="M446.514,207.567H65.486c-8.594,0-15.563-6.967-15.563-15.563v-84.627
		c0-8.595,6.969-15.563,15.563-15.563h381.028c8.594,0,15.563,6.967,15.563,15.563v84.625
		C462.076,200.598,455.109,207.567,446.514,207.567z M81.049,176.442h349.902v-53.501H81.049V176.442z"/>
	<path style="fill:#ff8f00;" d="M330.701,63.802c-8.594,0-15.563-6.967-15.563-15.563V31.125H196.862V48.24
		c0,8.595-6.969,15.563-15.563,15.563s-15.563-6.967-15.563-15.563V15.563C165.736,6.967,172.705,0,181.299,0h149.402
		c8.594,0,15.563,6.967,15.563,15.563V48.24C346.264,56.835,339.296,63.802,330.701,63.802z"/>
</g>
<g>
</g>
<g>
</g>
<g>
</g>
<g>
</g>
<g>
</g>
<g>
</g>
<g>
</g>
<g>
</g>
<g>
</g>
<g>
</g>
<g>
</g>
<g>
</g>
<g>
</g>
<g>
</g>
<g>
</g>
</svg>
