<?xml version="1.0" encoding="iso-8859-1"?>
<!-- Generator: Adobe Illustrator 19.0.0, SVG Export Plug-In . SVG Version: 6.00 Build 0)  -->
<svg version="1.1" id="Layer_1" xmlns="http://www.w3.org/2000/svg" xmlns:xlink="http://www.w3.org/1999/xlink" x="0px" y="0px"
	 viewBox="0 0 496.8 496.8" style="enable-background:new 0 0 496.8 496.8;" xml:space="preserve">
<circle style="fill:#3AC2F2;" cx="248.4" cy="280.8" r="216"/>
<path style="fill:#009CC6;" d="M401.2,128c84,84,84,220.8,0,305.6c-84,84-220.8,84-305.6,0"/>
<path style="fill:#0084A3;" d="M273.2,251.2l-54.4,54.4l152.8,152.8c10.4-7.2,20-15.2,29.6-24.8c9.6-9.6,17.6-19.2,24.8-29.6
	L273.2,251.2z"/>
<circle style="fill:#EFEFEF;" cx="248.4" cy="280.8" r="170.4"/>
<path style="fill:#E5E5E5;" d="M368.4,160.8c66.4,66.4,66.4,174.4,0,240.8s-174.4,66.4-240.8,0"/>
<path style="fill:#D1D1D3;" d="M273.2,251.2l-54.4,54.4L338,424.8c10.4-6.4,20.8-14.4,30.4-24s17.6-19.2,24-30.4L273.2,251.2z"/>
<circle style="fill:#009CC6;" cx="248.4" cy="280.8" r="39.2"/>
<path style="fill:#3AC2F2;" d="M220.4,252.8c15.2-15.2,40-15.2,55.2,0c15.2,15.2,15.2,40,0,55.2"/>
<path style="fill:#F15249;" d="M256.4,224.8c0,4-3.2,7.2-7.2,7.2h-1.6c-4,0-7.2-3.2-7.2-7.2v-57.6c0-4,3.2-7.2,7.2-7.2h1.6
	c4,0,7.2,3.2,7.2,7.2V224.8z"/>
<path style="fill:#FFC114;" d="M294.8,247.2c-3.2,3.2-7.2,2.4-10.4,0l0,0c-3.2-3.2-2.4-7.2,0-10.4l71.2-69.6c3.2-3.2,7.2-2.4,10.4,0
	l0,0c3.2,3.2,2.4,7.2,0,10.4L294.8,247.2z"/>
<path style="fill:#F15249;" d="M320.4,32c0,18.4-15.2,32-33.6,32H210c-18.4,0-33.6-13.6-33.6-32l0,0c0-18.4,15.2-32,33.6-32h76.8
	C305.2,0,320.4,13.6,320.4,32L320.4,32z"/>
<path style="fill:#AD0E0E;" d="M320.4,32L320.4,32c0,18.4-15.2,32-33.6,32H210c-18.4,0-33.6-14.4-33.6-32.8l0,0"/>
<path style="fill:#FFC114;" d="M165.2,92c0,11.2-8.8,20-20,20l0,0c-11.2,0-20-8.8-20-20l0,0c0-11.2,8.8-20,20-20l0,0
	C156.4,72,165.2,80.8,165.2,92L165.2,92z"/>
<path style="fill:#FCA12A;" d="M159.6,77.6L159.6,77.6c8,8,8,20.8,0,28.8l0,0c-8,8-20.8,8-28.8,0l0,0"/>
<path style="fill:#FFC114;" d="M371.6,92c0,11.2-8.8,20-20,20l0,0c-11.2,0-20-8.8-20-20l0,0c0-11.2,8.8-20,20-20l0,0
	C362.8,72,371.6,80.8,371.6,92L371.6,92z"/>
<path style="fill:#FCA12A;" d="M366,77.6L366,77.6c8,8,8,20.8,0,28.8l0,0c-8,8-20.8,8-28.8,0l0,0"/>
<g>
</g>
<g>
</g>
<g>
</g>
<g>
</g>
<g>
</g>
<g>
</g>
<g>
</g>
<g>
</g>
<g>
</g>
<g>
</g>
<g>
</g>
<g>
</g>
<g>
</g>
<g>
</g>
<g>
</g>
</svg>
